<svg version="1.1" xmlns="http://www.w3.org/2000/svg" xmlns:xlink="http://www.w3.org/1999/xlink" width="464.00015" height="464.00141" viewBox="0,0,464.00015,464.00141"><g transform="translate(-7.99985,52.00141)"><g data-paper-data="{&quot;isPaintingLayer&quot;:true}" fill="#ffffff" fill-rule="nonzero" stroke="none" stroke-width="1" stroke-linecap="butt" stroke-linejoin="miter" stroke-miterlimit="10" stroke-dasharray="" stroke-dashoffset="0" style="mix-blend-mode: normal"><path d="M349.291,92.033c-162.41297,1.46635 -293.29981,133.54741 -293.291,295.967c0,13.25483 -10.74517,24 -24,24c-13.25483,0 -24,-10.74517 -24,-24c-0.17359,-189.02989 152.3502,-342.71177 341.376,-343.968l31.958,23.968zM334.4,183.2l128,-96c6.04334,-4.53251 9.6,-11.64582 9.6,-19.2c0,-7.55418 -3.55666,-14.66749 -9.6,-19.2l-128,-96c-10.60387,-7.9529 -25.6471,-5.80387 -33.6,4.8c-7.9529,10.60387 -5.80387,25.6471 4.8,33.6l102.4,76.8l-102.4,76.8c-10.60387,7.9529 -12.7529,22.99613 -4.8,33.6c7.9529,10.60387 22.99613,12.7529 33.6,4.8z"/></g></g></svg>