<svg style="object-fit:cover" id="my-svg" version="1" baseProfile="full" width="100%" height="100%" viewBox="0 0 2048 1002" xmlns="http://www.w3.org/2000/svg"><rect width="2048" height="1002" fill="#000"/><defs><linearGradient id="linear-gradient" x1="0" x2="1" y1="0" y2="1"><stop offset="0%" stop-color="#76706f90"/><stop offset="100%" stop-color="#4d5a9390"/></linearGradient></defs><path transform="scale(1, 1)" style="transform-origin:center" d="M 0,1002 V 0,601 C 141.20238095238102,632.5357142857142 282.40476190476204,664.0714285714286 446,635 C 609.595238095238,605.9285714285714 795.5833333333333,516.25 965,546 C 1134.4166666666667,575.75 1287.2619047619048,724.9285714285713 1465,754 C 1642.7380952380952,783.0714285714287 1845.3690476190477,692.0357142857143 2048,601 C 2048,601 2048,1002 2048,1002 Z" stroke="none" stroke-width="0" fill="url(#linear-gradient)" class="transition-all duration-300 ease-in-out delay-150"/><defs><linearGradient id="linear-gradient" x1="0" x2="1" y1="0" y2="1"><stop offset="0%" stop-color="#76706fff"/><stop offset="100%" stop-color="#4d5a93ff"/></linearGradient></defs><path transform="scale(1, 1)" style="transform-origin:center" d="M 0,1002 V 0,901 C 168.27380952380958,820.6785714285714 336.54761904761915,740.3571428571429 530,738 C 723.4523809523808,735.6428571428571 942.0833333333333,811.25 1105,816 C 1267.9166666666667,820.75 1375.1190476190475,754.6428571428571 1523,757 C 1670.8809523809525,759.3571428571429 1859.4404761904761,830.1785714285714 2048,901 C 2048,901 2048,1002 2048,1002 Z" stroke="none" stroke-width="0" fill="url(#linear-gradient)" class="transition-all duration-300 ease-in-out delay-150"/></svg>