<svg version="1.1" xmlns="http://www.w3.org/2000/svg" xmlns:xlink="http://www.w3.org/1999/xlink" width="246.5" height="89.60435" viewBox="0,0,246.5,89.60435"><g transform="translate(-116.75,-135.19783)"><g data-paper-data="{&quot;isPaintingLayer&quot;:true}" fill="#ffffff" fill-rule="nonzero" stroke="none" stroke-width="1" stroke-linecap="butt" stroke-linejoin="miter" stroke-miterlimit="10" stroke-dasharray="" stroke-dashoffset="0" style="mix-blend-mode: normal"><g><path d="M194.25,135.19874c0.3,-0.1 2.7,8 5.4,17.8l4.8,17.9l-2.7,4.6l-2.7,4.6l2.7,4.6l2.7,4.6l-4.7,17.6c-2.6,9.8 -4.8,17.8 -4.9,17.9c-0.1,0.1 -8.2,-2 -18,-4.6l-17.8,-4.7l-2.6,-4.7l-2.5,-4.7h-5.6h-5.6l-13,-13l-13,-13l13,-13l13,-13h5.6h5.6l2.5,-4.7l2.6,-4.7l17.4,-4.7c9.5,-2.6 17.5,-4.7 17.8,-4.8zM166.05,152.39874l-11.8,3.2l-7.6,7.5c-4.1,4.1 -8.4,8.7 -9.5,10.2l-2,2.8h15.5h15.4l7.6,-13.1c4.2,-7.1 7.6,-13.2 7.6,-13.5c0,-0.9 -3.8,-0.1 -15.2,2.9zM189.75,153.29874c-0.3,-0.4 -15.5,25.8 -15.5,26.8c0,1 15.2,27.2 15.5,26.8c0.2,-0.2 2,-6.3 4,-13.6l3.7,-13.2l-3.7,-13.3c-2,-7.2 -3.8,-13.3 -4,-13.5zM166.05,184.09874h-15.5h-15.4l2,2.7c1.1,1.6 5.5,6.2 9.8,10.5l7.8,7.6l12.8,3.3c7,1.7 13,3 13.3,2.6c0.3,-0.3 -2.9,-6.4 -7.1,-13.6z"/><path d="M299.25,150.09874c3.9,0 4,0.1 4,3.5c0,3.4 -0.1,3.5 -4,3.5c-3.9,0 -4,-0.1 -4,-3.5c0,-3.4 0.1,-3.5 4,-3.5z"/><path d="M312.25,150.09874h4.5h4.5v5.9c0,4.9 0.3,5.9 1.9,6.4c1,0.2 2.3,1.8 2.9,3.6c1.1,3 1,3.1 -1.9,3.1h-2.9v14.5v14.5h-4.5h-4.5v-14.5v-14.5h-3.1c-2.8,0 -3,-0.2 -2.7,-3.3c0.2,-2.7 0.8,-3.3 3.1,-3.5c2.6,-0.3 2.7,-0.5 2.7,-6.3z"/><path d="M286.05,163.69874c4.1,2.7 5.2,7.1 5.2,21.4v13h-4h-4v-10.5c0,-13.4 -1.3,-17.1 -6.5,-18.1c-2.8,-0.5 -4.3,-0.2 -6.3,1.3c-3.5,2.6 -4,4.8 -4.1,17l-0.1,10.3h-4h-4v-18v-18h4c3.4,0 4,0.3 4,2.2c0,2 0.1,2 1.8,0.5c0.9,-0.9 2.9,-2.1 4.2,-2.6c3.2,-1.4 10.7,-0.5 13.8,1.5z"/><path d="M221.25,161.99874l4.3,0.3l4.2,0.3l0.5,12.6c0.6,14.6 1.2,15.9 7.5,15.9c3.5,0 4.8,-0.5 6.4,-2.6c1.9,-2.4 2.1,-4 2.1,-14.5v-11.9h4h4v18v18h-4c-3,0 -4,-0.4 -4,-1.6c0,-1.3 -0.5,-1.2 -2.6,0.5c-4.1,3.2 -13.2,3 -17.3,-0.5c-4.1,-3.4 -5.1,-7.7 -5.1,-22.2z"/><path d="M295.25,162.09874h4h4v18v18h-4h-4v-18z"/><path d="M332.55,162.09874h4.5l4.3,12.1c5,13.8 4.1,14 10.1,-2.6l3.3,-9l4.3,-0.3c2.3,-0.2 4.2,0 4.2,0.5c0,0.4 -4.2,11.4 -9.2,24.5l-9.3,23.8h-4.2c-2.4,0 -4.3,-0.2 -4.3,-0.5c0,-0.3 1.2,-3.4 2.6,-7l2.7,-6.6l-6.1,-15.7c-3.4,-8.6 -6.4,-16.5 -6.8,-17.5c-0.5,-1.5 0,-1.7 3.9,-1.7z"/></g></g></g></svg>